<?xml version="1.0" encoding="utf-8"?>
<!-- Generator: Adobe Illustrator 22.1.0, SVG Export Plug-In . SVG Version: 6.00 Build 0)  -->
<svg version="1.1" id="Lager_1" xmlns="http://www.w3.org/2000/svg" xmlns:xlink="http://www.w3.org/1999/xlink" x="0px" y="0px"
	 viewBox="0 0 200 200" style="enable-background:new 0 0 200 200;" xml:space="preserve">
<style type="text/css">
	.st0{fill:#AE6161;}
	.st1{fill:#FFFFFF;}
</style>
<title>Röd</title>
<path class="st0" d="M200,100c0,28.5-12,54.3-31.1,72.5c-17.9,17-42.1,27.5-68.7,27.5h-0.3c-26.7,0-50.9-10.5-68.8-27.5
	C12,154.3,0,128.5,0,100C0,44.8,44.8,0,100,0S200,44.8,200,100z"/>
<g id="surface1">
	<path class="st1" d="M168.9,172.3v0.2c-17.9,17-42.1,27.5-68.7,27.5h-0.3c-26.7,0-50.9-10.5-68.8-27.5v-0.2
		c0-13.2,23.2-26.7,43.8-34.3c0,0,4.7,12,11.2,21.2c3.4-7.5,7.6-15,10.8-18.6c-8.7-1.1-14-6.4-15.3-8.2c1-2.3,1.3-5.6-0.4-10
		c-10.3-10.6-18.3-27.7-18.3-44.5c0-25.8,17.2-39.3,37.1-39.3s37.1,13.5,37.1,39.3c0,16.8-7.8,34-18.1,44.5
		c-1.6,4.8-1.5,7.9-0.8,10.2c-1.6,2.1-6.7,7-15.1,8c3.2,3.6,7.4,11.1,10.8,18.6c6.5-9.2,11-21,11-21
		C146.1,145.6,168.9,158.9,168.9,172.3z"/>
</g>
</svg>
