<svg id="Lager_1" data-name="Lager 1" xmlns="http://www.w3.org/2000/svg" viewBox="0 0 200 200"><defs><style>.cls-1{fill:#ae6161;}.cls-2{fill:#fff;}</style></defs><title>RodMoln</title><g id="Lager_1-2" data-name="Lager 1"><circle class="cls-1" cx="100" cy="100" r="100"/></g><g id="g2991"><path id="path2993" class="cls-2" d="M161,112.47a24.41,24.41,0,0,1-24.4,24.4H67.47A28.54,28.54,0,0,1,39,108.4a27.63,27.63,0,0,1,4.51-15.35A28,28,0,0,1,55.39,82.67c-.08-1.19-.12-2.1-.12-2.74A32.54,32.54,0,0,1,87.8,47.4,31.46,31.46,0,0,1,106,53a32.47,32.47,0,0,1,11.92,14.62,15.36,15.36,0,0,1,10.55-3.94,16.22,16.22,0,0,1,13.66,25,23.85,23.85,0,0,1,13.53,8.55A23.61,23.61,0,0,1,161,112.47Z"/></g></svg>