<svg id="Lager_1" data-name="Lager 1" xmlns="http://www.w3.org/2000/svg" viewBox="0 0 200 200"><defs><style>.cls-1{fill:#ae6161;}.cls-2{fill:#fff;}</style></defs><title>RodShutter</title><g id="Lager_1-2" data-name="Lager 1"><circle class="cls-1" cx="100" cy="100" r="100"/></g><g id="aperture"><path class="cls-2" d="M119.07,92.55l21-35.63A58.54,58.54,0,0,0,100,41a59.34,59.34,0,0,0-10.74,1.08Z"/><path class="cls-2" d="M114.57,114.75h42.34a56.51,56.51,0,0,0-11.64-52.16Z"/><path class="cls-2" d="M101.84,77.88,81.9,44.13A58.88,58.88,0,0,0,45.38,77.88Z"/><path class="cls-2" d="M98.65,122.13l19.88,33.61a58.92,58.92,0,0,0,36.09-33.61Z"/><path class="cls-2" d="M85.64,85.25H43.09a56.55,56.55,0,0,0,11.76,52.32Z"/><path class="cls-2" d="M81.26,107.23l-21.18,36A58.67,58.67,0,0,0,100,159a59.93,59.93,0,0,0,11.21-1.12Z"/></g></svg>