<svg xmlns="http://www.w3.org/2000/svg" viewBox="0 0 200 200"><defs><style>.cls-1{fill:#ae6161;}.cls-2{fill:#fff;}</style></defs><title>RödÖga</title><g id="Lager_1" data-name="Lager 1"><circle class="cls-1" cx="100" cy="100" r="100"/></g><g id="Lager_4" data-name="Lager 4"><path class="cls-2" d="M176.21,100.08c-18.06-20.82-43-44.75-76.21-44.75-13.4,0-25.68,3.79-38.64,11.89C50.43,74.08,39.22,83.73,23.83,99.6l-.4.4,2.67,2.75c22,22.49,41,41.92,73.9,41.92,14.56,0,28.67-4.75,43.15-14.52,12.32-8.34,22.81-18.9,31.23-27.44l2.19-2.19ZM100,131.9A31.9,31.9,0,1,1,131.9,100,31.94,31.94,0,0,1,100,131.9Z" transform="translate(0 0)"/><path class="cls-2" d="M97.77,88.35A13.7,13.7,0,0,1,100,80.86a19.2,19.2,0,1,0,19.14,19.22h0a13.7,13.7,0,0,1-7.49,2.19A13.94,13.94,0,0,1,97.77,88.35Z" transform="translate(0 0)"/></g></svg>